<?xml version="1.0" encoding="utf-8"?>
<!-- Generator: Adobe Illustrator 27.9.5, SVG Export Plug-In . SVG Version: 9.03 Build 54986)  -->
<svg version="1.1" id="Camada_1" xmlns="http://www.w3.org/2000/svg" xmlns:xlink="http://www.w3.org/1999/xlink" x="0px" y="0px"
	 viewBox="0 0 900 200" style="enable-background:new 0 0 900 200;" xml:space="preserve">
<style type="text/css">
	.st0{fill:#2C113D;}
	.st1{fill:#3A1B51;}
</style>
<g>
	<path class="st0" d="M737.1,107.6c0-8.5,6.9-15.4,15.4-15.4c-8.5,0-15.4-6.9-15.4-15.4c0,8.5-6.9,15.4-15.4,15.4
		C730.2,92.2,737.1,99.1,737.1,107.6z"/>
	<path class="st0" d="M795.1,130.4c0-12.6,10.2-22.9,22.9-22.9c-12.6,0-22.9-10.2-22.9-22.9c0,12.6-10.2,22.9-22.9,22.9
		C784.9,107.6,795.1,117.8,795.1,130.4z"/>
	<path class="st0" d="M786.9,59.9c0-4.5,3.7-8.2,8.2-8.2c-4.5,0-8.2-3.7-8.2-8.2c0,4.5-3.7,8.2-8.2,8.2
		C783.3,51.7,786.9,55.4,786.9,59.9z"/>
	<path class="st0" d="M880.5,85.1c-8.7-39.9-38.1-70.8-85.1-72.1c25.2,12.6,42.5,38.6,42.5,68.6c0,42.3-34.3,76.6-76.6,76.6
		c-17,0-32.8-5.6-45.5-15c9.2,16.1,29.1,39.5,68.2,43.5C849.5,193.4,890.9,132.5,880.5,85.1z M786.9,174.5c-2.7,0-5-2.2-5-5
		c0-2.7,2.2-5,5-5c2.7,0,5,2.2,5,5C791.9,172.3,789.7,174.5,786.9,174.5z M856.2,63.8c2.7,0,5,2.2,5,5c0,2.7-2.2,5-5,5
		c-2.7,0-5-2.2-5-5C851.2,66,853.4,63.8,856.2,63.8z M814.7,170.1c-4.8,0-8.7-3.9-8.7-8.7s3.9-8.7,8.7-8.7c4.8,0,8.7,3.9,8.7,8.7
		S819.5,170.1,814.7,170.1z M846.8,147.8c-7.3,0-13.1-5.9-13.1-13.1c0-7.3,5.9-13.1,13.1-13.1c7.3,0,13.1,5.9,13.1,13.1
		C859.9,141.9,854,147.8,846.8,147.8z M859.9,108.8c-4.8,0-8.7-3.9-8.7-8.7c0-4.8,3.9-8.7,8.7-8.7c4.8,0,8.7,3.9,8.7,8.7
		C868.6,104.9,864.7,108.8,859.9,108.8z"/>
</g>
<g>
	<path class="st1" d="M19,132.2V58.3h1.6l49.1,56.6V58.3H77v73.8h-1.7L26.6,76.3v55.9H19z"/>
	<path class="st1" d="M96.3,55.1c1.6,0,3,0.6,4.1,1.7c1.1,1.1,1.7,2.5,1.7,4.1c0,1.6-0.6,2.9-1.7,4.1c-1.1,1.1-2.5,1.7-4.1,1.7
		c-1.6,0-2.9-0.6-4-1.7c-1.1-1.1-1.7-2.5-1.7-4.1c0-1.6,0.6-3,1.7-4.1C93.3,55.7,94.7,55.1,96.3,55.1z M92.8,77.6h7v54.6h-7V77.6z"
		/>
	<path class="st1" d="M113.3,56.5h7v75.7h-7V56.5z"/>
	<path class="st1" d="M189.4,77.6v54.6h-6.9v-9.4c-2.9,3.6-6.2,6.3-9.9,8.1c-3.7,1.8-7.7,2.7-12,2.7c-7.7,0-14.3-2.8-19.8-8.4
		c-5.5-5.6-8.2-12.4-8.2-20.4c0-7.9,2.8-14.6,8.3-20.2c5.5-5.6,12.2-8.4,19.9-8.4c4.5,0,8.5,1,12.2,2.9c3.6,1.9,6.8,4.8,9.6,8.6v-10
		H189.4z M161.3,82.9c-3.9,0-7.5,1-10.8,2.9c-3.3,1.9-5.9,4.6-7.9,8.1c-2,3.5-2.9,7.2-2.9,11c0,3.8,1,7.5,3,11
		c2,3.5,4.6,6.2,7.9,8.2c3.3,2,6.9,2.9,10.7,2.9c3.8,0,7.5-1,10.9-2.9c3.4-1.9,6.1-4.6,7.9-7.9c1.9-3.3,2.8-7,2.8-11.2
		c0-6.3-2.1-11.6-6.2-15.8C172.5,85.1,167.4,82.9,161.3,82.9z"/>
	<path class="st1" d="M205.2,77.6h7v9.8c2.8-3.7,5.9-6.5,9.3-8.4c3.4-1.9,7.1-2.8,11.1-2.8c4.1,0,7.7,1,10.9,3.1
		c3.2,2.1,5.5,4.9,7,8.4c1.5,3.5,2.3,9,2.3,16.4v28.1h-7v-26c0-6.3-0.3-10.5-0.8-12.6c-0.8-3.6-2.4-6.3-4.7-8.2
		c-2.3-1.8-5.3-2.7-9-2.7c-4.3,0-8.1,1.4-11.4,4.2c-3.4,2.8-5.6,6.3-6.6,10.4c-0.7,2.7-1,7.7-1,14.9v20h-7V77.6z"/>
	<path class="st1" d="M322.3,56.5v75.7h-6.9v-9.4c-2.9,3.6-6.2,6.3-9.9,8.1c-3.7,1.8-7.7,2.7-12,2.7c-7.7,0-14.3-2.8-19.8-8.4
		c-5.5-5.6-8.2-12.4-8.2-20.4c0-7.9,2.8-14.6,8.3-20.2c5.5-5.6,12.2-8.4,19.9-8.4c4.5,0,8.5,1,12.2,2.9c3.6,1.9,6.8,4.8,9.6,8.6
		V56.5H322.3z M294.3,82.9c-3.9,0-7.5,1-10.8,2.9c-3.3,1.9-5.9,4.6-7.9,8.1c-2,3.5-2.9,7.2-2.9,11c0,3.8,1,7.5,3,11
		c2,3.5,4.6,6.2,7.9,8.2c3.3,2,6.9,2.9,10.7,2.9c3.8,0,7.5-1,10.9-2.9c3.4-1.9,6.1-4.6,7.9-7.9c1.9-3.3,2.8-7,2.8-11.2
		c0-6.3-2.1-11.6-6.2-15.8C305.5,85.1,300.3,82.9,294.3,82.9z"/>
	<path class="st1" d="M335.6,77.6h7.2v8c2.1-3.1,4.4-5.5,6.8-7.1c2.4-1.6,4.8-2.3,7.4-2.3c1.9,0,4,0.6,6.2,1.9l-3.7,5.9
		c-1.5-0.6-2.7-1-3.7-1c-2.3,0-4.6,1-6.8,2.9c-2.2,1.9-3.8,4.9-5,9c-0.9,3.1-1.3,9.4-1.3,18.9v18.5h-7.2V77.6z"/>
	<path class="st1" d="M423.5,77.6v54.6h-6.9v-9.4c-2.9,3.6-6.2,6.3-9.9,8.1c-3.7,1.8-7.7,2.7-12,2.7c-7.7,0-14.3-2.8-19.8-8.4
		c-5.5-5.6-8.2-12.4-8.2-20.4c0-7.9,2.8-14.6,8.3-20.2c5.5-5.6,12.2-8.4,19.9-8.4c4.5,0,8.5,1,12.2,2.9c3.6,1.9,6.8,4.8,9.6,8.6v-10
		H423.5z M395.5,82.9c-3.9,0-7.5,1-10.8,2.9c-3.3,1.9-5.9,4.6-7.9,8.1c-2,3.5-2.9,7.2-2.9,11c0,3.8,1,7.5,3,11
		c2,3.5,4.6,6.2,7.9,8.2c3.3,2,6.9,2.9,10.7,2.9c3.8,0,7.5-1,10.9-2.9c3.4-1.9,6.1-4.6,7.9-7.9c1.9-3.3,2.8-7,2.8-11.2
		c0-6.3-2.1-11.6-6.2-15.8C406.7,85.1,401.5,82.9,395.5,82.9z"/>
	<path class="st0" d="M461.4,58.3h40.8v13.8h-13.4v60h-14.3v-60h-13.1V58.3z"/>
	<path class="st0" d="M550.6,77.6h13.7v54.6h-13.7v-5.8c-2.7,2.5-5.4,4.4-8,5.5c-2.7,1.1-5.6,1.7-8.7,1.7c-7.1,0-13.1-2.7-18.3-8.2
		c-5.1-5.5-7.7-12.3-7.7-20.4c0-8.4,2.5-15.3,7.5-20.7c5-5.4,11-8.1,18.1-8.1c3.3,0,6.3,0.6,9.2,1.9c2.9,1.2,5.5,3.1,8,5.6V77.6z
		 M536.2,88.8c-4.2,0-7.8,1.5-10.6,4.5c-2.8,3-4.2,6.8-4.2,11.5c0,4.7,1.4,8.6,4.3,11.6c2.9,3,6.4,4.6,10.5,4.6
		c4.3,0,7.9-1.5,10.7-4.5c2.8-3,4.3-6.9,4.3-11.8c0-4.7-1.4-8.6-4.3-11.5C544.2,90.3,540.6,88.8,536.2,88.8z"/>
	<path class="st0" d="M575,77.6h11.7v6.9c1.3-2.7,3-4.8,5.1-6.2c2.1-1.4,4.4-2.1,6.9-2.1c1.8,0,3.6,0.5,5.6,1.4L600,89.4
		c-1.6-0.8-2.9-1.2-4-1.2c-2.1,0-3.9,1.3-5.3,3.9s-2.2,7.7-2.2,15.4l0.1,2.7v22.1H575V77.6z"/>
	<path class="st0" d="M636.7,76.2c5.2,0,10,1.3,14.5,3.9c4.5,2.6,8.1,6.1,10.6,10.5c2.5,4.4,3.8,9.2,3.8,14.3c0,5.2-1.3,10-3.8,14.5
		c-2.6,4.5-6,8-10.5,10.5c-4.4,2.5-9.3,3.8-14.6,3.8c-7.8,0-14.5-2.8-20-8.4c-5.5-5.6-8.3-12.3-8.3-20.3c0-8.5,3.1-15.6,9.4-21.3
		C623.3,78.6,629.6,76.2,636.7,76.2z M636.9,89.1c-4.3,0-7.8,1.5-10.6,4.4s-4.2,6.7-4.2,11.4c0,4.8,1.4,8.6,4.2,11.5
		c2.8,2.9,6.3,4.4,10.6,4.4c4.3,0,7.9-1.5,10.7-4.5c2.8-3,4.3-6.8,4.3-11.5c0-4.7-1.4-8.5-4.2-11.4
		C644.9,90.5,641.3,89.1,636.9,89.1z"/>
	<path class="st0" d="M678.5,57.4h13.7v20.1h8.1v11.8h-8.1v42.8h-13.7V89.4h-7V77.6h7V57.4z"/>
</g>
</svg>
